<svg xmlns="http://www.w3.org/2000/svg" viewBox="0 0 860 760" width="860" height="760">
  <defs>
    <style>
      .box { fill: #f0f0f0; stroke: #333; stroke-width: 2; }
      .main-app { fill: #e3f2fd; stroke: #1976d2; stroke-width: 2; }
      .server { fill: #fff3e0; stroke: #f57c00; stroke-width: 2; }
      .llama-server { fill: #f3e5f5; stroke: #7b1fa2; stroke-width: 2; }
      .component { fill: #ffffff; stroke: #666; stroke-width: 1.5; }
      .text { font-family: Arial, sans-serif; font-size: 14px; fill: #333; }
      .text-small { font-family: Arial, sans-serif; font-size: 12px; fill: #666; }
      .text-label { font-family: Arial, sans-serif; font-size: 11px; fill: #888; font-style: italic; }
      .title { font-family: Arial, sans-serif; font-size: 16px; fill: #1976d2; font-weight: bold; }
      .title-purple { font-family: Arial, sans-serif; font-size: 15px; fill: #7b1fa2; font-weight: bold; }
      .arrow { fill: none; stroke: #666; stroke-width: 2; marker-end: url(#arrowhead); }
      .arrow-thick { fill: none; stroke: #1976d2; stroke-width: 2.5; marker-end: url(#arrowhead-blue); }
      .arrow-http { fill: none; stroke: #7b1fa2; stroke-width: 2; stroke-dasharray: 6,3; marker-end: url(#arrowhead-purple); }
      .icon-text { font-family: Arial, sans-serif; font-size: 20px; }
    </style>
    <marker id="arrowhead" markerWidth="10" markerHeight="10" refX="9" refY="3" orient="auto">
      <polygon points="0 0, 10 3, 0 6" fill="#666" />
    </marker>
    <marker id="arrowhead-blue" markerWidth="10" markerHeight="10" refX="9" refY="3" orient="auto">
      <polygon points="0 0, 10 3, 0 6" fill="#1976d2" />
    </marker>
    <marker id="arrowhead-purple" markerWidth="10" markerHeight="10" refX="9" refY="3" orient="auto">
      <polygon points="0 0, 10 3, 0 6" fill="#7b1fa2" />
    </marker>
  </defs>

  <!-- Microphone -->
  <rect x="320" y="20" width="160" height="50" rx="5" class="box"/>
  <text x="400" y="50" text-anchor="middle" class="text">🎤 Microphone</text>

  <!-- Arrow to main app -->
  <path d="M 400 70 L 400 120" class="arrow"/>
  <text x="420" y="100" class="text-label">(audio input, including commands)</text>

  <!-- Main App Container -->
  <rect x="50" y="120" width="700" height="240" rx="8" class="main-app"/>
  <text x="400" y="145" text-anchor="middle" class="title">talk-llama-custom (Main App)</text>

  <!-- Whisper STT -->
  <rect x="80" y="165" width="140" height="80" rx="5" class="component"/>
  <text x="150" y="195" text-anchor="middle" class="text">Whisper</text>
  <text x="150" y="215" text-anchor="middle" class="text">STT</text>

  <!-- LLM Client (replaces embedded LLM) -->
  <rect x="320" y="165" width="160" height="80" rx="5" class="component"/>
  <text x="400" y="190" text-anchor="middle" class="text">LLM Client</text>
  <text x="400" y="208" text-anchor="middle" class="text-small">HTTP /completion</text>
  <text x="400" y="225" text-anchor="middle" class="text-small">SSE streaming</text>

  <!-- Arrow: Whisper to LLM Client -->
  <path d="M 220 205 L 320 205" class="arrow"/>
  <text x="270" y="200" text-anchor="middle" class="text-small">(normal text)</text>

  <!-- TTS Client -->
  <rect x="320" y="285" width="160" height="60" rx="5" class="component"/>
  <text x="400" y="310" text-anchor="middle" class="text">TTS</text>
  <text x="400" y="328" text-anchor="middle" class="text">Client</text>

  <!-- Arrow: LLM Client to TTS -->
  <path d="M 400 245 L 400 285" class="arrow"/>

  <!-- Arrow: Whisper to TTS (bypass for commands) -->
  <path d="M 150 245 Q 150 315 320 315" class="arrow"/>
  <text x="175" y="295" class="text-label">commands (bypass)</text>

  <!-- Arrow: TTS Client down to Wyoming-Piper (dashed = separate process call) -->
  <path d="M 400 345 L 400 430" class="arrow-http"/>
  <text x="418" y="378" class="text-label">HTTP POST</text>
  <text x="418" y="393" class="text-label">{text: "...", ...}</text>
  <text x="418" y="408" class="text-label">:10200</text>

  <!-- Arrow: LLM Client out right to llama-server -->
  <path d="M 480 205 L 780 205" class="arrow-http"/>
  <text x="620" y="195" text-anchor="middle" class="text-label">HTTP :8080 /completion</text>

  <!-- llama-server (external process) -->
  <rect x="780" y="155" width="60" height="100" rx="8" class="llama-server"/>
  <text x="810" y="178" text-anchor="middle" font-family="Arial" font-size="11" font-weight="bold" fill="#7b1fa2">llama</text>
  <text x="810" y="192" text-anchor="middle" font-family="Arial" font-size="11" font-weight="bold" fill="#7b1fa2">server</text>
  <text x="810" y="212" text-anchor="middle" font-family="Arial" font-size="10" fill="#9c27b0">Mistral</text>
  <text x="810" y="226" text-anchor="middle" font-family="Arial" font-size="10" fill="#9c27b0">7B</text>
  <text x="810" y="243" text-anchor="middle" font-family="Arial" font-size="9" fill="#888">:8080</text>

  <!-- Wyoming-Piper Server -->
  <rect x="250" y="430" width="300" height="240" rx="8" class="server"/>
  <text x="400" y="455" text-anchor="middle" class="title">wyoming-piper</text>
  <text x="400" y="473" text-anchor="middle" class="text-small">TTS Server</text>

  <!-- Command Detection -->
  <rect x="280" y="490" width="240" height="50" rx="5" class="component"/>
  <text x="400" y="510" text-anchor="middle" class="text-small">Command Detection</text>
  <text x="400" y="525" text-anchor="middle" class="text-small">(e.g., "stop")</text>

  <!-- Piper Synthesis -->
  <rect x="280" y="555" width="240" height="40" rx="5" class="component"/>
  <text x="400" y="580" text-anchor="middle" class="text">Piper Synthesis</text>

  <!-- aplay -->
  <rect x="280" y="610" width="240" height="40" rx="5" class="component"/>
  <text x="400" y="635" text-anchor="middle" class="text">aplay (Audio Out)</text>

  <!-- Arrows within Wyoming-Piper -->
  <path d="M 400 540 L 400 555" class="arrow"/>
  <path d="M 400 595 L 400 610" class="arrow"/>

  <!-- Speaker -->
  <text x="565" y="638" class="icon-text">🔊</text>
  <text x="592" y="638" class="text">Speaker</text>
  <path d="M 520 630 L 562 630" class="arrow"/>

  <!-- llama-server annotation box -->
  <rect x="690" y="280" width="160" height="55" rx="5" fill="#f9f0ff" stroke="#ce93d8" stroke-width="1"/>
  <text x="770" y="300" text-anchor="middle" font-family="Arial" font-size="10" fill="#7b1fa2">Separate process</text>
  <text x="770" y="315" text-anchor="middle" font-family="Arial" font-size="10" fill="#7b1fa2">GPU-accelerated</text>
  <text x="770" y="328" text-anchor="middle" font-family="Arial" font-size="10" fill="#7b1fa2">start-assistant.sh</text>

  <!-- Arrow from annotation to llama-server -->
  <path d="M 770 280 L 810 255" stroke="#ce93d8" stroke-width="1" fill="none"/>

  <!-- Legend -->
  <rect x="55" y="595" width="195" height="80" rx="5" fill="white" stroke="#ccc" stroke-width="1"/>
  <text x="152" y="612" text-anchor="middle" font-family="Arial" font-size="11" font-weight="bold" fill="#333">Legend</text>
  <line x1="68" y1="627" x2="105" y2="627" stroke="#666" stroke-width="2" marker-end="url(#arrowhead)"/>
  <text x="112" y="631" font-family="Arial" font-size="10" fill="#555">data within same process</text>
  <line x1="68" y1="648" x2="105" y2="648" stroke="#7b1fa2" stroke-width="2" stroke-dasharray="6,3" marker-end="url(#arrowhead-purple)"/>
  <text x="112" y="652" font-family="Arial" font-size="10" fill="#555">call to separate process</text>

</svg>
